<?xml version="1.0" encoding="utf-8"?>
<!-- Generator: Adobe Illustrator 24.0.1, SVG Export Plug-In . SVG Version: 6.00 Build 0)  -->
<svg version="1.1" id="Layer_1" xmlns="http://www.w3.org/2000/svg" xmlns:xlink="http://www.w3.org/1999/xlink" x="0px" y="0px"
	 viewBox="0 0 15 15" style="enable-background:new 0 0 15 15;" xml:space="preserve">
<style type="text/css">
	.st0{enable-background:new    ;}
</style>
<title>47F9AEA9-3C86-497D-B442-A774557B8BD8</title>
<desc>Created with sketchtool.</desc>
<g id="Page-1">
	<g id="HOME" transform="translate(-783.000000, -2791.000000)">
		<g id="Press" transform="translate(55.000000, 2458.000000)">
			<g id="Form" transform="translate(722.000000, 135.000000)">
				<g class="st0">
					<g>
						<path d="M16.6,198h1.9v1.3h0.9c0.4,0,0.8,0.2,1.1,0.5s0.5,0.7,0.5,1.1v10.6c0,0.4-0.2,0.8-0.5,1.1s-0.7,0.5-1.1,0.5H7.6
							c-0.4,0-0.8-0.2-1.1-0.5S6,211.9,6,211.4v-10.6c0-0.4,0.2-0.8,0.5-1.1s0.7-0.5,1.1-0.5h0.9V198h1.9v1.3h6.3V198z M19.4,211.4
							v-8.3H7.6v8.3H19.4z M17.9,206.1v3.8h-3.8v-3.8H17.9z"/>
					</g>
				</g>
			</g>
		</g>
	</g>
</g>
</svg>
